<svg width="41" height="40" viewBox="0 0 41 40" fill="none" xmlns="http://www.w3.org/2000/svg">
<path fill-rule="evenodd" clip-rule="evenodd" d="M20.4265 0C9.38223 0 0.426468 9.18083 0.426468 20.5063C0.426468 29.5667 6.15709 37.2532 14.1038 39.9648C15.1033 40.1546 15.4703 39.5199 15.4703 38.9783C15.4703 38.4893 15.4517 36.8738 15.4432 35.1604C9.879 36.4008 8.70492 32.7409 8.70492 32.7409C7.79515 30.3706 6.48429 29.7405 6.48429 29.7405C4.66977 28.4677 6.62107 28.4938 6.62107 28.4938C8.62947 28.6385 9.687 30.607 9.687 30.607C11.4708 33.7421 14.3657 32.8356 15.507 32.3118C15.6865 30.9863 16.2049 30.0818 16.7768 29.5697C12.3346 29.051 7.66464 27.2927 7.66464 19.4353C7.66464 17.1966 8.44595 15.3672 9.72543 13.9312C9.51776 13.4146 8.83323 11.329 9.91915 8.50439C9.91915 8.50439 11.5986 7.95323 15.4206 10.6064C17.0158 10.1519 18.7268 9.92417 20.4265 9.91645C22.1263 9.92417 23.8385 10.1519 25.4369 10.6064C29.2543 7.95323 30.9314 8.50439 30.9314 8.50439C32.02 11.329 31.3352 13.4146 31.1275 13.9312C32.4098 15.3672 33.1858 17.1965 33.1858 19.4353C33.1858 27.3114 28.507 29.0457 24.0536 29.5533C24.7709 30.1897 25.4101 31.4377 25.4101 33.3508C25.4101 36.0945 25.3868 38.3028 25.3868 38.9783C25.3868 39.524 25.7468 40.1634 26.7608 39.962C34.7031 37.2474 40.4265 29.5636 40.4265 20.5063C40.4265 9.18083 31.472 0 20.4265 0" fill="white"/>
<path d="M9.80207 25.5553C9.74757 25.6446 9.55329 25.6714 9.37674 25.6102C9.19668 25.5514 9.09545 25.4295 9.15385 25.3397C9.20738 25.2476 9.40165 25.2219 9.58133 25.2838C9.76178 25.3424 9.86456 25.4655 9.80207 25.5553ZM11.023 26.3453C10.9046 26.4249 10.6732 26.3879 10.5161 26.2622C10.3537 26.1366 10.3234 25.9689 10.4435 25.888C10.5655 25.8085 10.79 25.8457 10.9527 25.9713C11.1151 26.0982 11.1466 26.265 11.0228 26.3455M11.8606 27.3562C11.7084 27.4328 11.4596 27.361 11.306 27.2009C11.154 27.0409 11.154 26.8489 11.3093 26.772C11.4635 26.695 11.7084 26.7642 11.8641 26.923C12.0159 27.0858 12.0159 27.2778 11.8604 27.3563M13.277 28.527C13.1409 28.6357 12.8512 28.6066 12.6391 28.4581C12.4222 28.313 12.3617 28.107 12.4981 27.9981C12.6357 27.8891 12.9271 27.9198 13.1409 28.067C13.3564 28.2119 13.4222 28.4194 13.2772 28.527M15.1075 28.9223C15.0478 29.0632 14.7686 29.1273 14.4875 29.0674C14.2068 29.0058 14.0231 28.8406 14.0797 28.6981C14.1381 28.5562 14.4184 28.4894 14.7017 28.5535C14.982 28.615 15.1661 28.7789 15.1077 28.9223M17.1912 29.0899C17.1982 29.2384 16.9597 29.3615 16.6646 29.3642C16.3678 29.3689 16.1278 29.2487 16.1246 29.1027C16.1246 28.9528 16.3577 28.8308 16.6543 28.8273C16.9494 28.8231 17.1912 28.9424 17.1912 29.0899ZM19.2378 29.033C19.2733 29.1779 19.0681 29.3267 18.7751 29.3662C18.487 29.4043 18.2204 29.3149 18.1836 29.1714C18.1477 29.0228 18.3568 28.8742 18.6443 28.8356C18.9379 28.7986 19.2005 28.8857 19.2378 29.033Z" fill="white"/>
</svg>
