<svg width="42" height="41" viewBox="0 0 42 41" fill="none" xmlns="http://www.w3.org/2000/svg">
<path d="M19.7598 0.785881C16.3213 0.829214 8.92286 1.35588 4.78422 4.89423C1.71195 7.74424 0.638447 11.9459 0.513412 17.1493C0.40624 22.3326 0.281206 32.066 10.3375 34.7177V38.751C10.3375 38.751 10.2697 40.3677 11.4128 40.701C12.8239 41.1177 13.6277 39.8693 14.9674 38.536L17.4681 35.9027C24.3449 36.436 29.6142 35.2043 30.2215 35.021C31.6148 34.6043 39.4759 33.6693 40.7619 23.9343C42.0837 13.8826 40.1189 7.54924 36.5822 4.68256L36.5644 4.67923C35.4926 3.76256 31.2057 0.845881 21.6138 0.812548C21.6138 0.812548 20.9065 0.770881 19.7598 0.785881ZM19.8794 3.61422C20.8529 3.60922 21.4513 3.64756 21.4513 3.64756C29.5606 3.66422 33.4385 5.94756 34.3495 6.71423C37.3324 9.09591 38.865 14.8076 37.7432 23.201C36.6715 31.3343 30.2948 31.851 29.1159 32.201C28.6157 32.351 23.9716 33.4177 18.1272 33.0677C18.1272 33.0677 13.7706 37.9693 12.4131 39.236C12.1988 39.4527 11.9487 39.5193 11.7879 39.486C11.5557 39.436 11.4843 39.1693 11.5021 38.8027L11.5379 32.1043C3.01588 29.9043 3.51602 21.6009 3.60533 17.2676C3.7125 12.9343 4.58774 9.38091 7.17774 6.9809C10.6733 4.03089 16.9572 3.63089 19.8776 3.61422H19.8794ZM20.5225 7.94757C20.4522 7.94735 20.3825 7.96008 20.3175 7.98502C20.2525 8.00997 20.1934 8.04664 20.1437 8.09294C20.0939 8.13924 20.0544 8.19425 20.0274 8.25482C20.0005 8.31538 19.9866 8.38032 19.9866 8.44591C19.9866 8.57852 20.0431 8.70569 20.1436 8.79946C20.244 8.89323 20.3803 8.94591 20.5225 8.94591C21.8504 8.92227 23.1702 9.14428 24.4057 9.59911C25.6412 10.0539 26.7679 10.7326 27.7209 11.5959C29.6678 13.3626 30.6163 15.7293 30.652 18.8293C30.652 18.8949 30.6659 18.96 30.6928 19.0206C30.7197 19.0813 30.7592 19.1364 30.809 19.1828C30.8587 19.2293 30.9178 19.2661 30.9828 19.2912C31.0478 19.3163 31.1175 19.3293 31.1879 19.3293V19.3143C31.33 19.3143 31.4663 19.2616 31.5668 19.1678C31.6673 19.0741 31.7237 18.9469 31.7237 18.8143C31.79 17.3564 31.5375 15.9012 30.9817 14.5373C30.4259 13.1734 29.5784 11.9294 28.4907 10.8809C26.3651 8.94757 23.6823 7.94757 20.5207 7.94757H20.5225ZM13.4598 9.09758C13.08 9.04707 12.6929 9.11753 12.3613 9.29758H12.3399C11.6075 9.69758 10.9323 10.1976 10.2893 10.8642C9.80703 11.3976 9.53731 11.9293 9.46586 12.4459C9.42383 12.7489 9.45434 13.0569 9.55517 13.3476L9.5909 13.3643C10.1415 14.8745 10.8598 16.3269 11.7343 17.6976C12.8679 19.6173 14.2606 21.3935 15.8783 22.9826L15.9319 23.0493L16.0034 23.0993L16.057 23.1493L16.1105 23.1993C17.8203 24.7126 19.7289 26.0175 21.7907 27.0826C24.1485 28.2826 25.581 28.8493 26.4384 29.0826V29.0993C26.6884 29.166 26.9171 29.1993 27.1493 29.1993C27.8811 29.1495 28.5741 28.8725 29.1177 28.4126C29.8143 27.8293 30.368 27.1826 30.7788 26.4993V26.4826C31.1897 25.766 31.0468 25.081 30.4573 24.6143C29.2694 23.6446 27.9832 22.785 26.617 22.0476C25.706 21.5809 24.7772 21.8643 24.4021 22.3309L23.5983 23.2793C23.1875 23.746 22.4373 23.6793 22.4373 23.6793L22.4158 23.696C16.8429 22.3626 15.3603 17.0976 15.3603 17.0976C15.3603 17.0976 15.2889 16.3809 15.8069 16.0143L16.8072 15.2643C17.2894 14.8976 17.6288 14.0309 17.1108 13.1809C16.3216 11.9055 15.4003 10.7053 14.3601 9.59758C14.1338 9.33573 13.8144 9.15832 13.4598 9.09758ZM21.4495 10.5809C21.3074 10.5814 21.1713 10.6345 21.0711 10.7285C20.971 10.8226 20.915 10.95 20.9154 11.0826C20.9159 11.2152 20.9728 11.3422 21.0736 11.4356C21.1745 11.5291 21.311 11.5814 21.4531 11.5809C23.2406 11.6099 24.9429 12.2992 26.1865 13.4976C26.7476 14.0751 27.1789 14.7517 27.455 15.4874C27.7312 16.2231 27.8464 17.003 27.7941 17.7809C27.7946 17.9133 27.8512 18.04 27.9517 18.1334C28.0521 18.2268 28.1881 18.2793 28.33 18.2793L28.3478 18.2993C28.4183 18.2993 28.4882 18.2863 28.5533 18.2611C28.6184 18.2358 28.6776 18.1988 28.7274 18.1522C28.7771 18.1056 28.8166 18.0503 28.8434 17.9895C28.8702 17.9286 28.8839 17.8634 28.8837 17.7976C28.9373 15.8143 28.2764 14.1476 26.9724 12.8143C25.6685 11.4809 23.8466 10.7309 21.5245 10.5809C21.4995 10.5793 21.4745 10.5793 21.4495 10.5809ZM22.3247 13.2793C22.2531 13.2773 22.1817 13.2885 22.1147 13.3123C22.0477 13.336 21.9863 13.3719 21.9342 13.4178C21.882 13.4637 21.84 13.5187 21.8107 13.5797C21.7813 13.6407 21.7651 13.7066 21.763 13.7734C21.7609 13.8403 21.7729 13.9069 21.7984 13.9694C21.8238 14.0319 21.8623 14.0892 21.9114 14.1379C21.9606 14.1865 22.0196 14.2257 22.085 14.2531C22.1504 14.2805 22.2209 14.2956 22.2926 14.2976C24.0609 14.3809 24.9183 15.2143 25.0255 16.9309C25.0301 17.0606 25.0886 17.1836 25.1886 17.2738C25.2886 17.364 25.4223 17.4143 25.5613 17.4143H25.5792C25.6512 17.4122 25.7219 17.3966 25.7873 17.3684C25.8527 17.3402 25.9113 17.3 25.9596 17.2503C26.008 17.2005 26.0451 17.1421 26.0687 17.0787C26.0923 17.0152 26.102 16.948 26.0972 16.8809C25.9722 14.6476 24.6682 13.3959 22.3462 13.2793C22.339 13.2791 22.3319 13.2791 22.3247 13.2793Z" fill="white"/>
</svg>
