<svg width="41" height="41" viewBox="0 0 41 41" fill="none" xmlns="http://www.w3.org/2000/svg">
<path d="M0.0430298 40.4082L2.88219 30.267C1.13649 27.2998 0.20609 23.9288 0.215681 20.4827C0.215681 9.68428 9.19356 0.904694 20.2241 0.904694C25.5763 0.904694 30.6024 2.94231 34.3719 6.64194C38.1511 10.3416 40.2325 15.2619 40.2229 20.4921C40.2229 31.2905 31.245 40.0701 20.2145 40.0701H20.2049C16.8574 40.0701 13.5674 39.2438 10.6419 37.6851L0.0430298 40.4082ZM11.1407 34.1357L11.745 34.4925C14.2964 35.9761 17.2219 36.7555 20.2049 36.7649H20.2145C29.3746 36.7649 36.837 29.4689 36.837 20.4921C36.837 16.1446 35.1105 12.0599 31.974 8.98004C28.8375 5.90014 24.6555 4.20995 20.2145 4.20995C11.0448 4.20995 3.58239 11.5059 3.58239 20.4827C3.58239 23.5532 4.45524 26.5486 6.1242 29.1402L6.51746 29.76L4.83891 35.7601L11.1407 34.1357Z" fill="white"/>
<path d="M15.2172 12.2853C14.8431 11.4684 14.4498 11.4496 14.095 11.4402C13.8072 11.4308 13.4715 11.4308 13.1358 11.4308C12.8001 11.4308 12.2629 11.5529 11.8025 12.0411C11.3421 12.5294 10.0568 13.7126 10.0568 16.1258C10.0568 18.5296 11.8505 20.8583 12.0999 21.1869C12.3493 21.5156 15.5625 26.6143 20.6365 28.5768C24.8569 30.2107 25.7202 29.882 26.6314 29.7975C27.5522 29.713 29.5856 28.6144 30.0077 27.4688C30.4201 26.3232 30.4201 25.3467 30.2954 25.1401C30.1707 24.9335 29.835 24.8115 29.3362 24.5673C28.8375 24.3232 26.382 23.14 25.9216 22.971C25.4612 22.802 25.1255 22.7269 24.7993 23.2152C24.4636 23.7034 23.5045 24.8021 23.2167 25.1307C22.929 25.4594 22.6316 25.4969 22.1328 25.2528C21.6341 25.0086 20.0227 24.4922 18.1139 22.8208C16.6272 21.525 15.62 19.9193 15.3323 19.431C15.0445 18.9427 15.3035 18.6798 15.5529 18.4357C15.7735 18.2197 16.0517 17.8629 16.3011 17.5812C16.5504 17.2995 16.6368 17.0929 16.7998 16.7643C16.9629 16.4356 16.8862 16.1539 16.7615 15.9098C16.6368 15.6657 15.6584 13.2524 15.2172 12.2853Z" fill="white"/>
</svg>
